<svg class="diagram-root" style="background: #f5f6f6" xmlns="http://www.w3.org/2000/svg" xmlns:xlink="http://www.w3.org/1999/xlink"><style>.diagram-root { font-family: "Helvetica Neue", sans-serif; font-size: 12px; } .t { overflow: visible; } .t-bg { y: 40; fill: #fff;   } .th { fill: #005aa0;   } .tht { fill: #fff; font-size: 14px;  } .tf { fill: #323c46; overflow: visible; } .tf.pk { fill: #005aa0; font-weight: bold; } .tf.fk { font-weight: bold; } .ty { fill: #adb1b5; font-weight: normal; text-anchor: end; } .r { fill: transparent; stroke: #c3c3c3; stroke-width: 1; } .l { stroke: 1; } .i { fill: #c2c7ce; stroke: #c2c7ce; } .i.ix { fill: #afb3b6; stroke: #000; } .fa { fill: transparent; overflow: visible; } .fa .bg.hover { fill: #f7f7f7; } .c { cy: 12; r: 4; stroke: #d2d2dc; fill: #d2d2dc; } .hr { fill: transparent; stroke: #323c46; stroke-opacity: 0.035; stroke-width: 13; } .dc { stroke: #fa5a3c; fill: #fa5a3c; } .x { stroke: white; stroke-width: 1; } .hl .th { fill: #1b9bff; } .hl .tht {  } .fhl .bg { fill: #e7f4ff; } .fhls .bg {  } .r.hl { stroke: #1b9bff; } .dim { opacity: 0.25; }</style><g class="drawing-wrapper" transform="translate(-130, 42) scale(1,1)"><g class="rs"><path d="M 496 45 m -1, 0 a 1,1 0 1,0 2,0 a 1,1 0 1,0 -2,0 M 496 45 m -0.5, 0 a 0.5,0.5 0 1,0 1,0 a 0.5,0.5 0 1,0 -1,0  M496 45 L496 45 484 45 M 496 51 m -1, 0 a 1,1 0 1,0 2,0 a 1,1 0 1,0 -2,0 M 496 51 m -0.5, 0 a 0.5,0.5 0 1,0 1,0 a 0.5,0.5 0 1,0 -1,0  M496 51 L496 51 489 45 496 39 M 496 39 m -1, 0 a 1,1 0 1,0 2,0 a 1,1 0 1,0 -2,0 M 496 39 m -0.5, 0 a 0.5,0.5 0 1,0 1,0 a 0.5,0.5 0 1,0 -1,0  M484 45 C 430.8 45, 432 386, 482 386 M 494 386 m -1, 0 a 1,1 0 1,0 2,0 a 1,1 0 1,0 -2,0 M 494 386 m -0.5, 0 a 0.5,0.5 0 1,0 1,0 a 0.5,0.5 0 1,0 -1,0  M494 386 L494 386 482 386 M488 392 L488 392 488 380" id="h211156328" class="r"></path><path d="M 805 340 m -1, 0 a 1,1 0 1,0 2,0 a 1,1 0 1,0 -2,0 M 805 340 m -0.5, 0 a 0.5,0.5 0 1,0 1,0 a 0.5,0.5 0 1,0 -1,0  M805 340 L805 340 793 340 M 805 346 m -1, 0 a 1,1 0 1,0 2,0 a 1,1 0 1,0 -2,0 M 805 346 m -0.5, 0 a 0.5,0.5 0 1,0 1,0 a 0.5,0.5 0 1,0 -1,0  M805 346 L805 346 798 340 805 334 M 805 334 m -1, 0 a 1,1 0 1,0 2,0 a 1,1 0 1,0 -2,0 M 805 334 m -0.5, 0 a 0.5,0.5 0 1,0 1,0 a 0.5,0.5 0 1,0 -1,0  M793 340 Q 769.25 340, 745.5 205 T 698 70 M 686 70 m -1, 0 a 1,1 0 1,0 2,0 a 1,1 0 1,0 -2,0 M 686 70 m -0.5, 0 a 0.5,0.5 0 1,0 1,0 a 0.5,0.5 0 1,0 -1,0  M686 70 L686 70 698 70 M692 76 L692 76 692 64" id="h217937630" class="r"></path><path d="M 356 419 m -1, 0 a 1,1 0 1,0 2,0 a 1,1 0 1,0 -2,0 M 356 419 m -0.5, 0 a 0.5,0.5 0 1,0 1,0 a 0.5,0.5 0 1,0 -1,0  M356 419 L356 419 368 419 M 356 425 m -1, 0 a 1,1 0 1,0 2,0 a 1,1 0 1,0 -2,0 M 356 425 m -0.5, 0 a 0.5,0.5 0 1,0 1,0 a 0.5,0.5 0 1,0 -1,0  M356 425 L356 425 363 419 356 413 M 356 413 m -1, 0 a 1,1 0 1,0 2,0 a 1,1 0 1,0 -2,0 M 356 413 m -0.5, 0 a 0.5,0.5 0 1,0 1,0 a 0.5,0.5 0 1,0 -1,0  M368 419 C 418 419, 426.4 242, 354 242 M 342 242 m -1, 0 a 1,1 0 1,0 2,0 a 1,1 0 1,0 -2,0 M 342 242 m -0.5, 0 a 0.5,0.5 0 1,0 1,0 a 0.5,0.5 0 1,0 -1,0  M342 242 L342 242 354 242 M348 248 L348 248 348 236" id="h1950675103" class="r"></path><path d="M 494 411 m -1, 0 a 1,1 0 1,0 2,0 a 1,1 0 1,0 -2,0 M 494 411 m -0.5, 0 a 0.5,0.5 0 1,0 1,0 a 0.5,0.5 0 1,0 -1,0  M494 411 L494 411 482 411 M 494 417 m -1, 0 a 1,1 0 1,0 2,0 a 1,1 0 1,0 -2,0 M 494 417 m -0.5, 0 a 0.5,0.5 0 1,0 1,0 a 0.5,0.5 0 1,0 -1,0  M494 417 L494 417 487 411 494 405 M 494 405 m -1, 0 a 1,1 0 1,0 2,0 a 1,1 0 1,0 -2,0 M 494 405 m -0.5, 0 a 0.5,0.5 0 1,0 1,0 a 0.5,0.5 0 1,0 -1,0  M482 411 Q 453.5 411, 425 415 T 368 419 M 356 419 m -1, 0 a 1,1 0 1,0 2,0 a 1,1 0 1,0 -2,0 M 356 419 m -0.5, 0 a 0.5,0.5 0 1,0 1,0 a 0.5,0.5 0 1,0 -1,0  M356 419 L356 419 368 419 M362 425 L362 425 362 413" id="h1607168654" class="r"></path><path d="M 342 217 m -1, 0 a 1,1 0 1,0 2,0 a 1,1 0 1,0 -2,0 M 342 217 m -0.5, 0 a 0.5,0.5 0 1,0 1,0 a 0.5,0.5 0 1,0 -1,0  M342 217 L342 217 354 217 M 342 223 m -1, 0 a 1,1 0 1,0 2,0 a 1,1 0 1,0 -2,0 M 342 223 m -0.5, 0 a 0.5,0.5 0 1,0 1,0 a 0.5,0.5 0 1,0 -1,0  M342 223 L342 223 349 217 342 211 M 342 211 m -1, 0 a 1,1 0 1,0 2,0 a 1,1 0 1,0 -2,0 M 342 211 m -0.5, 0 a 0.5,0.5 0 1,0 1,0 a 0.5,0.5 0 1,0 -1,0  M354 217 Q 386.5 217, 419 131 T 484 45 M 496 45 m -1, 0 a 1,1 0 1,0 2,0 a 1,1 0 1,0 -2,0 M 496 45 m -0.5, 0 a 0.5,0.5 0 1,0 1,0 a 0.5,0.5 0 1,0 -1,0  M496 45 L496 45 484 45 M490 51 L490 51 490 39" id="h2286254435" class="r"></path><path d="M 364 62 m -1, 0 a 1,1 0 1,0 2,0 a 1,1 0 1,0 -2,0 M 364 62 m -0.5, 0 a 0.5,0.5 0 1,0 1,0 a 0.5,0.5 0 1,0 -1,0  M364 62 L364 62 376 62 M 364 68 m -1, 0 a 1,1 0 1,0 2,0 a 1,1 0 1,0 -2,0 M 364 68 m -0.5, 0 a 0.5,0.5 0 1,0 1,0 a 0.5,0.5 0 1,0 -1,0  M364 68 L364 68 371 62 364 56 M 364 56 m -1, 0 a 1,1 0 1,0 2,0 a 1,1 0 1,0 -2,0 M 364 56 m -0.5, 0 a 0.5,0.5 0 1,0 1,0 a 0.5,0.5 0 1,0 -1,0  M376 62 Q 403 62, 430 53.5 T 484 45 M 496 45 m -1, 0 a 1,1 0 1,0 2,0 a 1,1 0 1,0 -2,0 M 496 45 m -0.5, 0 a 0.5,0.5 0 1,0 1,0 a 0.5,0.5 0 1,0 -1,0  M496 45 L496 45 484 45 M490 51 L490 51 490 39" id="h1513839806" class="r"></path></g><g class="hrs"></g><g class="ts"><svg width="190" height="225" x="496" y="-12" id="h1639608377" class="t"><rect height="40" width="190" class="th"></rect><text x="13" y="25" class="tht">employees</text><rect height="185" width="190" class="t-bg" y="40"></rect><text x="13" y="61" class="tf pk">emp_no<tspan x="177" class="ty">VARCHAR(10)</tspan></text><path d="M7,14A2,2 0 0,1 5,12A2,2 0 0,1 7,10A2,2 0 0,1 9,12A2,2 0 0,1 7,14M12.65,10C11.83,7.67 9.61,6 7, 6A6, 6 0 0, 0 1, 12A6, 6 0 0, 0 7, 18C9.61, 18 11.83, 16.33 12.65, 14H17V18H21V14H23V10H12.65Z" class="i pk" transform="translate(79, 48) scale(0.65)"></path><text x="13" y="86" class="tf fk">emp_title<tspan x="177" class="ty">VARCHAR(5)</tspan></text><text x="13" y="111" class="tf">birth_date<tspan x="177" class="ty">VARCHAR(10)</tspan></text><text x="13" y="136" class="tf">first_name<tspan x="177" class="ty">VARCHAR(30)</tspan></text><text x="13" y="161" class="tf">last_name<tspan x="177" class="ty">VARCHAR(30)</tspan></text><text x="13" y="186" class="tf">sex<tspan x="177" class="ty">VARCHAR(1)</tspan></text><text x="13" y="211" class="tf">hire_date<tspan x="177" class="ty">VARCHAR(10)</tspan></text></svg><svg width="173" height="100" x="805" y="283" id="h311790747" class="t"><rect height="40" width="173" class="th"></rect><text x="13" y="25" class="tht">titles</text><rect height="60" width="173" class="t-bg" y="40"></rect><text x="13" y="61" class="tf pk">title_id<tspan x="160" class="ty">VARCHAR(5)</tspan></text><path d="M7,14A2,2 0 0,1 5,12A2,2 0 0,1 7,10A2,2 0 0,1 9,12A2,2 0 0,1 7,14M12.65,10C11.83,7.67 9.61,6 7, 6A6, 6 0 0, 0 1, 12A6, 6 0 0, 0 7, 18C9.61, 18 11.83, 16.33 12.65, 14H17V18H21V14H23V10H12.65Z" class="i pk" transform="translate(69, 48) scale(0.65)"></path><text x="13" y="86" class="tf">title<tspan x="160" class="ty">VARCHAR(30)</tspan></text></svg><svg width="190" height="100" x="152" y="160" id="h1676682957" class="t"><rect height="40" width="190" class="th"></rect><text x="13" y="25" class="tht">dept_manager</text><rect height="60" width="190" class="t-bg" y="40"></rect><text x="13" y="61" class="tf pk">emp_no<tspan x="177" class="ty">VARCHAR(10)</tspan></text><path d="M7,14A2,2 0 0,1 5,12A2,2 0 0,1 7,10A2,2 0 0,1 9,12A2,2 0 0,1 7,14M12.65,10C11.83,7.67 9.61,6 7, 6A6, 6 0 0, 0 1, 12A6, 6 0 0, 0 7, 18C9.61, 18 11.83, 16.33 12.65, 14H17V18H21V14H23V10H12.65Z" class="i pk" transform="translate(79, 48) scale(0.65)"></path><text x="13" y="86" class="tf fk">dept_no<tspan x="177" class="ty">VARCHAR(4)</tspan></text></svg><svg width="190" height="100" x="174" y="5" id="h3858243705" class="t"><rect height="40" width="190" class="th"></rect><text x="13" y="25" class="tht">Salaries</text><rect height="60" width="190" class="t-bg" y="40"></rect><text x="13" y="61" class="tf pk">emp_no<tspan x="177" class="ty">VARCHAR(10)</tspan></text><path d="M7,14A2,2 0 0,1 5,12A2,2 0 0,1 7,10A2,2 0 0,1 9,12A2,2 0 0,1 7,14M12.65,10C11.83,7.67 9.61,6 7, 6A6, 6 0 0, 0 1, 12A6, 6 0 0, 0 7, 18C9.61, 18 11.83, 16.33 12.65, 14H17V18H21V14H23V10H12.65Z" class="i pk" transform="translate(79, 48) scale(0.65)"></path><text x="13" y="86" class="tf">salary<tspan x="177" class="ty">int</tspan></text></svg><svg width="190" height="100" x="494" y="329" id="h1090417462" class="t"><rect height="40" width="190" class="th"></rect><text x="13" y="25" class="tht">dept_emp</text><rect height="60" width="190" class="t-bg" y="40"></rect><text x="13" y="61" class="tf pk">emp_no<tspan x="177" class="ty">VARCHAR(10)</tspan></text><path d="M7,14A2,2 0 0,1 5,12A2,2 0 0,1 7,10A2,2 0 0,1 9,12A2,2 0 0,1 7,14M12.65,10C11.83,7.67 9.61,6 7, 6A6, 6 0 0, 0 1, 12A6, 6 0 0, 0 7, 18C9.61, 18 11.83, 16.33 12.65, 14H17V18H21V14H23V10H12.65Z" class="i pk" transform="translate(79, 48) scale(0.65)"></path><text x="13" y="86" class="tf fk">dept_no<tspan x="177" class="ty">VARCHAR(4)</tspan></text></svg><svg width="187" height="100" x="169" y="362" id="h475896179" class="t"><rect height="40" width="187" class="th"></rect><text x="13" y="25" class="tht">departments</text><rect height="60" width="187" class="t-bg" y="40"></rect><text x="13" y="61" class="tf pk">dept_no<tspan x="174" class="ty">VARCHAR(4)</tspan></text><path d="M7,14A2,2 0 0,1 5,12A2,2 0 0,1 7,10A2,2 0 0,1 9,12A2,2 0 0,1 7,14M12.65,10C11.83,7.67 9.61,6 7, 6A6, 6 0 0, 0 1, 12A6, 6 0 0, 0 7, 18C9.61, 18 11.83, 16.33 12.65, 14H17V18H21V14H23V10H12.65Z" class="i pk" transform="translate(83, 48) scale(0.65)"></path><text x="13" y="86" class="tf">dept_name<tspan x="174" class="ty">VARCHAR(30)</tspan></text></svg></g></g><text class="qdbd-link" x="10" y="20">www.quickdatabasediagrams.com</text></svg>